<?xml version="1.0" encoding="utf-8"?>
<!-- Generator: Adobe Adobe Illustrator 24.2.0, SVG Export Plug-In . SVG Version: 6.00 Build 0)  -->
<svg version="1.1" id="Layer_1" xmlns="http://www.w3.org/2000/svg" xmlns:xlink="http://www.w3.org/1999/xlink" x="0px" y="0px"
	 width="1728px" height="1296px" viewBox="0 0 1728 1296" style="enable-background:new 0 0 1728 1296;" xml:space="preserve">
<style type="text/css">
	.st0{fill:none;stroke:#000000;stroke-width:15;stroke-linecap:round;stroke-linejoin:round;stroke-miterlimit:10;}
	.st1{stroke:#000000;stroke-width:15;stroke-linecap:round;stroke-linejoin:round;stroke-miterlimit:10;}
	.st2{fill:none;stroke:#000000;stroke-width:21;stroke-linecap:round;stroke-linejoin:round;stroke-miterlimit:10;}
	.st3{fill:none;stroke:#000000;stroke-width:9;stroke-linecap:round;stroke-linejoin:round;stroke-miterlimit:10;}
	.st4{fill:none;stroke:#000000;stroke-width:18;stroke-linecap:round;stroke-linejoin:round;stroke-miterlimit:10;}
	.st5{fill:none;stroke:#000000;stroke-width:13;stroke-linejoin:round;stroke-miterlimit:10;}
	.st6{fill:none;stroke:#000000;stroke-width:8;stroke-linejoin:round;stroke-miterlimit:10;}
	.st7{fill:none;stroke:#000000;stroke-width:9;stroke-linejoin:round;stroke-miterlimit:10;}
	.st8{stroke:#000000;stroke-width:11;stroke-linecap:round;stroke-linejoin:round;stroke-miterlimit:10;}
	.st9{stroke:#000000;stroke-width:12;stroke-linecap:round;stroke-linejoin:round;stroke-miterlimit:10;}
	.st10{stroke:#000000;stroke-width:15;stroke-linejoin:round;stroke-miterlimit:10;}
	.st11{fill:#FFFFFF;stroke:#000000;stroke-width:14;stroke-linecap:round;stroke-linejoin:round;stroke-miterlimit:10;}
	.st12{fill:none;stroke:#000000;stroke-width:14;stroke-linecap:round;stroke-linejoin:round;stroke-miterlimit:10;}
	.st13{fill:none;stroke:#000000;stroke-width:18;stroke-linejoin:round;stroke-miterlimit:10;}
	.st14{fill:none;stroke:#000000;stroke-width:13;stroke-miterlimit:10;}
	.st15{fill:none;stroke:#000000;stroke-width:9;stroke-miterlimit:10;}
	.st16{fill:none;stroke:#000000;stroke-width:9;stroke-linecap:round;stroke-miterlimit:10;}
	.st17{fill:none;stroke:#000000;stroke-width:24;stroke-linejoin:round;stroke-miterlimit:10;}
	.st18{stroke:#000000;stroke-width:13;stroke-miterlimit:10;}
	.st19{stroke:#000000;stroke-width:13;stroke-linecap:round;stroke-miterlimit:10;}
</style>
<path class="st0" d="M706.95,295.79V195.15c0-3.97,3.21-7.18,7.18-7.18h107.64c3.97,0,7.18,3.21,7.18,7.18v100.64
	c0,3.97-3.21,7.18-7.18,7.18H714.13C710.16,302.97,706.95,299.76,706.95,295.79z"/>
<line class="st0" x1="863.75" y1="134.78" x2="910.73" y2="134.78"/>
<line class="st0" x1="863.75" y1="134.78" x2="910.73" y2="134.78"/>
<line class="st1" x1="616.1" y1="404.66" x2="613.47" y2="134.78"/>
<line class="st1" x1="910.73" y1="404.66" x2="910.73" y2="134.78"/>
<line class="st1" x1="613.47" y1="134.78" x2="910.73" y2="134.78"/>
<rect x="650.19" y="86.28" class="st1" width="27.55" height="48.5"/>
<line class="st0" x1="659.1" y1="134.78" x2="631.23" y2="134.78"/>
<g>
	<ellipse class="st2" cx="308.74" cy="710.83" rx="38.5" ry="39"/>
	<ellipse class="st3" cx="308.74" cy="710.83" rx="29.92" ry="29.17"/>
	<line class="st3" x1="286.44" y1="658.56" x2="286.44" y2="633.23"/>
	<line class="st3" x1="331.82" y1="658.81" x2="331.82" y2="633.48"/>
	<line class="st3" x1="308.74" y1="650.06" x2="308.74" y2="608.87"/>
	<line class="st4" x1="434.99" y1="772.36" x2="494.39" y2="772.36"/>
	<line class="st4" x1="123.09" y1="772.36" x2="494.39" y2="772.36"/>
	<g>
		<line class="st4" x1="123.09" y1="604.24" x2="123.09" y2="772.36"/>
		<line class="st4" x1="494.39" y1="604.24" x2="494.39" y2="772.36"/>
		<line class="st4" x1="248.32" y1="766.53" x2="247.62" y2="604.24"/>
		<line class="st4" x1="370.12" y1="766.53" x2="368.73" y2="604.24"/>
	</g>
	<line class="st4" x1="188.53" y1="772.36" x2="139.93" y2="772.36"/>
</g>
<g>
	<line class="st0" x1="1096.27" y1="78.22" x2="1095.03" y2="173.27"/>
	<line class="st0" x1="1062.99" y1="173.27" x2="1095.03" y2="173.27"/>
	<line class="st0" x1="1062.99" y1="173.27" x2="1062.99" y2="277.78"/>
	<line class="st0" x1="1096.27" y1="277.78" x2="1062.99" y2="277.78"/>
	<line class="st0" x1="1096.27" y1="479.32" x2="1096.27" y2="277.78"/>
</g>
<path class="st0" d="M1235.87,248.77c5.68,14.69,11.97,29.94,24.97,40.69c13.42,11.09,33.39,15.95,51.41,12.5
	c26.72-5.11,44.77-25.77,60.44-45"/>
<circle class="st0" cx="1297.41" cy="306.18" r="10.69"/>
<rect x="1202.98" y="413.7" transform="matrix(0.9701 -0.2427 0.2427 0.9701 -66.2239 324.5535)" class="st1" width="162.39" height="34.74"/>
<line class="st0" x1="1297.41" y1="316.87" x2="1304.28" y2="387.15"/>
<rect x="1199.12" y="255.79" transform="matrix(0.9701 -0.2427 0.2427 0.9701 -44.4496 302.7582)" class="st8" width="14.9" height="152"/>
<rect x="1130.23" y="218.91" transform="matrix(0.7671 -0.6416 0.6416 0.7671 127.3371 808.9258)" class="st9" width="94.94" height="20.38"/>
<rect x="370.77" y="152.73" class="st10" width="18" height="118"/>
<rect x="229.48" y="152.73" class="st10" width="18" height="118"/>
<rect x="204.99" y="291.37" class="st10" width="208" height="34"/>
<rect x="388.77" y="346.01" class="st10" width="7.71" height="12"/>
<rect x="225.63" y="346.01" class="st10" width="7.71" height="12"/>
<line class="st11" x1="276" y1="163.04" x2="346.76" y2="163.04"/>
<path class="st12" d="M412.99,163.04c8.71-0.7,17.66-1.45,25.13-3.46c4.92-1.32,8.97-3.14,12.73-5.01
	c10.24-5.11,18.76-10.83,25.21-16.94c3.43-3.25,6.31-6.62,10.93-9.6"/>
<path class="st12" d="M204.99,163.04c-8.95-0.7-18.14-1.45-25.81-3.46c-5.05-1.32-9.21-3.14-13.07-5.01
	c-10.52-5.11-19.27-10.83-25.89-16.94c-3.52-3.25-6.48-6.62-11.23-9.6"/>
<g>
	<rect x="642.16" y="575.42" class="st13" width="276.07" height="68.34"/>
	<line class="st13" x1="655.45" y1="643.76" x2="655.45" y2="868.36"/>
	<line class="st13" x1="900.95" y1="643.76" x2="900.95" y2="868.36"/>
	<g>
		
			<ellipse transform="matrix(0.8265 -0.563 0.563 0.8265 -266.0534 561.7065)" class="st14" cx="778.18" cy="712.45" rx="30.94" ry="40.67"/>
		
			<ellipse transform="matrix(0.8599 -0.5104 0.5104 0.8599 -254.3252 496.2325)" class="st15" cx="776.97" cy="711.5" rx="21.57" ry="32.91"/>
		<line class="st16" x1="817.32" y1="779.77" x2="846.54" y2="829.87"/>
		<line class="st16" x1="789.84" y1="779.77" x2="805.07" y2="808.04"/>
		<line class="st16" x1="831.31" y1="755.81" x2="846.54" y2="784.08"/>
	</g>
	<line class="st4" x1="859.21" y1="648" x2="859.21" y2="707.34"/>
	<line class="st4" x1="699.65" y1="650" x2="699.65" y2="709.34"/>
	<line class="st4" x1="835.02" y1="709.34" x2="859.21" y2="709.34"/>
	<line class="st4" x1="700.14" y1="709.34" x2="722.01" y2="709.34"/>
</g>
<g>
	<g>
		<path class="st18" d="M767.81,237.19c-22.38,0-40.53,16.82-40.53,37.57c0,0.75,0.03,1.49,0.07,2.23c2.21-0.03,4.42,0.16,6.63-0.02
			c1.02-0.08,2.04-0.14,3.06-0.17c0.19-0.03,0.38-0.06,0.59-0.06c1.19-0.03,2.39-0.23,3.59-0.3c0.06-1.4,0.09-2.8,0.09-4.21
			c-0.01-0.92,0.56-1.72,1.34-2.22c0.04-0.28,0.08-0.56,0.15-0.84c0.11-0.72,0.25-1.44,0.42-2.14c0.04-0.9,0.23-1.75,0.68-2.65
			c0.14-0.28,0.3-0.54,0.47-0.8c0.92-2.05,2.23-4.03,3.83-5.55c0.03-0.03,0.07-0.06,0.1-0.09c0.46-0.54,0.94-1.06,1.42-1.56
			c4.02-4.19,10.59-6.41,16.56-6.57c5.65-0.15,11.79,1.66,16.31,4.76c1.63,1.12,3.02,2.42,4.2,3.85c0.14,0.15,0.28,0.31,0.41,0.46
			c0.06,0.06,0.11,0.13,0.17,0.19c0.52,0.56,1.01,1.13,1.48,1.72c1.78,2.12,3.35,4.29,4.23,6.89c0.17,0.26,0.29,0.57,0.3,0.94
			c0,0.04,0.01,0.07,0.01,0.11c0.03,0.15,0.05,0.29,0.06,0.44c0.08,0.34,0.16,0.69,0.23,1.04c0.08,0.28,0.17,0.54,0.25,0.79
			c0.19,0.58,0.26,1.15,0.3,1.73c0.06,0.2,0.1,0.42,0.12,0.65c0,0.05,0.01,0.11,0.01,0.16c0.17,0.71,0.31,1.42,0.38,2.14
			c0.49-0.05,0.99-0.08,1.48-0.08c1.81,0,3.61,0.03,5.41,0.09c1.56-0.09,3.11-0.08,4.68-0.14c0.67-0.02,1.33-0.05,1.99-0.07
			c0.01-0.24,0.01-0.48,0.01-0.72C808.33,254.01,790.19,237.19,767.81,237.19z"/>
		<path class="st18" d="M767.81,248.17c-15.84,0-28.68,11.9-28.68,26.59c0,0.63,0.03,1.25,0.07,1.86c0.68-0.07,1.36-0.15,2.03-0.19
			c0.06-1.4,0.09-2.8,0.09-4.21c-0.01-0.92,0.56-1.72,1.34-2.22c0.04-0.28,0.08-0.56,0.15-0.84c0.11-0.72,0.25-1.44,0.42-2.14
			c0.04-0.9,0.23-1.75,0.68-2.65c0.14-0.28,0.3-0.54,0.47-0.8c0.92-2.05,2.23-4.03,3.83-5.55c0.03-0.03,0.07-0.06,0.1-0.09
			c0.46-0.54,0.94-1.06,1.42-1.56c4.02-4.19,10.59-6.41,16.56-6.57c5.65-0.15,11.79,1.66,16.31,4.76c1.63,1.12,3.02,2.42,4.2,3.85
			c0.14,0.15,0.28,0.31,0.41,0.46c0.06,0.06,0.11,0.13,0.17,0.19c0.52,0.56,1.01,1.13,1.48,1.72c1.78,2.12,3.35,4.29,4.23,6.89
			c0.17,0.26,0.29,0.57,0.3,0.94c0,0.04,0.01,0.07,0.01,0.11c0.03,0.15,0.05,0.29,0.06,0.44c0.08,0.34,0.16,0.69,0.23,1.04
			c0.08,0.28,0.17,0.54,0.25,0.79c0.19,0.58,0.26,1.15,0.3,1.73c0.06,0.2,0.1,0.42,0.12,0.65c0,0.05,0.01,0.11,0.01,0.16
			c0.17,0.71,0.31,1.42,0.38,2.14c0.49-0.05,0.99-0.08,1.48-0.08c0.08,0,0.16,0,0.24,0c0.01-0.28,0.02-0.55,0.02-0.83
			C796.49,260.08,783.65,248.17,767.81,248.17z"/>
	</g>
	<line class="st19" x1="742.23" y1="278.77" x2="728.92" y2="278.77"/>
	<line class="st19" x1="727.52" y1="277.91" x2="727.5" y2="278.77"/>
	<line class="st19" x1="794.46" y1="278.77" x2="808.48" y2="278.77"/>
	<line class="st19" x1="808.62" y1="278.5" x2="808.47" y2="274.42"/>
	<line class="st19" x1="794.46" y1="278.77" x2="794.75" y2="275.67"/>
	<line class="st19" x1="742.65" y1="269.99" x2="742.23" y2="278.77"/>
</g>
</svg>
