<?xml version="1.0" encoding="utf-8"?>
<!-- Generator: Adobe Adobe Illustrator 24.2.0, SVG Export Plug-In . SVG Version: 6.00 Build 0)  -->
<svg version="1.1" id="Layer_1" xmlns="http://www.w3.org/2000/svg" xmlns:xlink="http://www.w3.org/1999/xlink" x="0px" y="0px"
	 width="273px" height="248.5px" viewBox="0 0 273 248.5" style="enable-background:new 0 0 273 248.5;" xml:space="preserve">
<style type="text/css">
	.st0{stroke:#000000;stroke-width:12;stroke-linejoin:round;stroke-miterlimit:10;}
	.st1{stroke:#000000;stroke-width:7;stroke-linecap:round;stroke-linejoin:round;stroke-miterlimit:10;}
	.st2{fill:none;stroke:#000000;stroke-width:7;stroke-linecap:round;stroke-linejoin:round;stroke-miterlimit:10;}
</style>
<rect x="54.23" y="159.38" class="st0" width="166" height="23"/>
<rect x="200.04" y="199.59" class="st0" width="5.75" height="9"/>
<rect x="75.42" y="199.36" transform="matrix(-1 -1.224647e-16 1.224647e-16 -1 156.587 407.9506)" class="st0" width="5.75" height="9.23"/>
<rect x="70.79" y="47.95" class="st0" width="15" height="94"/>
<rect x="185.04" y="47.95" class="st0" width="15" height="94"/>
<line class="st1" x1="99.95" y1="58.38" x2="171.39" y2="58.38"/>
<path class="st2" d="M213.23,58.38c13.96-0.95,28.58-5.92,36.76-17.26c1.84-2.55,3.33-5.39,5.57-7.6"/>
<path class="st2" d="M59.23,58.38c-13.85-0.95-28.36-5.92-36.48-17.26c-1.83-2.55-3.3-5.39-5.52-7.6"/>
</svg>
