<?xml version="1.0" encoding="utf-8"?>
<!-- Generator: Adobe Adobe Illustrator 24.2.0, SVG Export Plug-In . SVG Version: 6.00 Build 0)  -->
<svg version="1.1" id="Layer_1" xmlns="http://www.w3.org/2000/svg" xmlns:xlink="http://www.w3.org/1999/xlink" x="0px" y="0px"
	 width="506px" height="520px" viewBox="0 0 506 520" style="enable-background:new 0 0 506 520;" xml:space="preserve">
<style type="text/css">
	.st0{fill:#FFFFFF;stroke:#000000;stroke-width:15;stroke-linecap:round;stroke-miterlimit:10;}
	.st1{fill:none;stroke:#000000;stroke-width:11;stroke-linecap:round;stroke-miterlimit:10;}
	.st2{fill:none;stroke:#000000;stroke-width:14;stroke-linecap:round;stroke-linejoin:round;stroke-miterlimit:10;}
	.st3{stroke:#000000;stroke-width:14;stroke-linecap:round;stroke-linejoin:round;stroke-miterlimit:10;}
	.st4{stroke:#000000;stroke-width:11;stroke-linecap:round;stroke-linejoin:round;stroke-miterlimit:10;}
</style>
<g>
	<line class="st0" x1="141.45" y1="42.39" x2="141.45" y2="149.61"/>
	<line class="st0" x1="141.45" y1="149.61" x2="104.45" y2="149.61"/>
	<line class="st0" x1="104.45" y1="149.61" x2="104.45" y2="256.34"/>
	<line class="st0" x1="104.45" y1="256.34" x2="141.45" y2="256.34"/>
	<line class="st0" x1="141.45" y1="256.34" x2="141.45" y2="454.16"/>
</g>
<g>
	<path class="st1" d="M299.02,225.93c66.23,83.31,100,7.15,100,7.15"/>
	<ellipse class="st1" cx="359.18" cy="268.89" rx="10.16" ry="9.75"/>
	<line class="st2" x1="359.18" y1="272.36" x2="369.34" y2="360.93"/>
</g>
<g>
	
		<rect x="250.86" y="391.68" transform="matrix(0.9743 -0.2253 0.2253 0.9743 -83.5119 85.5579)" class="st3" width="164.49" height="34"/>
	
		<rect x="251.68" y="220.26" transform="matrix(0.9743 -0.2253 0.2253 0.9743 -61.7733 65.7467)" class="st4" width="11" height="166.53"/>
	
		<rect x="178.99" y="192.44" transform="matrix(0.7601 -0.6498 0.6498 0.7601 -76.1544 194.6049)" class="st4" width="93" height="16"/>
</g>
</svg>
